<?xml version="1.0" encoding="UTF-8" standalone="no"?>
<svg
   viewBox="0 0 1668.5395 397.6748"
   height="397.6748"
   width="1668.5396"
   xml:space="preserve"
   id="svg2"
   version="1.1"
   sodipodi:docname="nordita.svg"
   inkscape:version="1.3.2 (091e20e, 2023-11-25, custom)"
   xmlns:inkscape="http://www.inkscape.org/namespaces/inkscape"
   xmlns:sodipodi="http://sodipodi.sourceforge.net/DTD/sodipodi-0.dtd"
   xmlns="http://www.w3.org/2000/svg"
   xmlns:svg="http://www.w3.org/2000/svg"
   xmlns:rdf="http://www.w3.org/1999/02/22-rdf-syntax-ns#"
   xmlns:cc="http://creativecommons.org/ns#"
   xmlns:dc="http://purl.org/dc/elements/1.1/"><sodipodi:namedview
     id="namedview1"
     pagecolor="#ffffff"
     bordercolor="#000000"
     borderopacity="0.25"
     inkscape:showpageshadow="2"
     inkscape:pageopacity="0.0"
     inkscape:pagecheckerboard="0"
     inkscape:deskcolor="#d1d1d1"
     inkscape:zoom="0.13945555"
     inkscape:cx="5413.9116"
     inkscape:cy="1617.0028"
     inkscape:window-width="2560"
     inkscape:window-height="1369"
     inkscape:window-x="-8"
     inkscape:window-y="-8"
     inkscape:window-maximized="1"
     inkscape:current-layer="g10" /><metadata
     id="metadata8"><rdf:RDF><cc:Work
         rdf:about=""><dc:format>image/svg+xml</dc:format><dc:type
           rdf:resource="http://purl.org/dc/dcmitype/StillImage" /></cc:Work></rdf:RDF></metadata><defs
     id="defs6" /><g
     transform="matrix(1.3333333,0,0,-1.3333333,0,476.91599)"
     id="g10"><path
       id="path14"
       style="fill:#5b5b66;fill-opacity:1;fill-rule:nonzero;stroke:#5b5b66;stroke-width:0.0999959;stroke-opacity:1"
       d="m 464.55674,138.971 -90.59231,120.14118 v -88.85824 c 0,-7.36672 0.36032,-12.2122 1.08818,-14.54082 0.72511,-2.33129 2.79128,-4.47076 6.20107,-6.42114 3.41065,-1.95393 8.52264,-2.92648 15.34402,-2.92648 v -4.25741 H 348.642 v 4.25741 c 6.11327,0.4411 10.7807,1.5578 13.99501,3.35402 3.21433,1.79261 5.12269,3.7287 5.7215,5.80806 0.5988,2.07943 0.90004,6.99214 0.90004,14.74339 v 67.93846 c 0,9.8244 -0.459,16.40691 -1.37692,19.74664 -0.91693,3.33686 -2.36998,5.47992 -4.35901,6.42467 -1.98903,0.9455 -6.42874,1.41798 -13.3119,1.41798 v 4.25738 h 37.89934 l 75.49113,-100.11408 v 76.58962 c 0,5.66552 -0.58172,9.63174 -1.74072,11.90115 -1.16257,2.26505 -3.52896,4.05758 -7.10463,5.38155 -3.5783,1.3229 -7.87458,1.98438 -12.89155,1.98438 v 4.25738 h 46.16295 v -4.25738 c -5.33699,-0.44105 -9.53825,-1.48432 -12.60561,-3.12276 -3.07093,-1.63845 -5.02413,-3.60945 -5.86133,-5.91026 -0.83723,-2.30354 -1.2532,-6.19704 -1.2532,-11.67979 V 138.971 h -3.75036" /><path
       id="path16"
       style="fill:#5b5b66;fill-opacity:1;fill-rule:nonzero;stroke:#5b5b66;stroke-width:0.0999959;stroke-opacity:1"
       d="m 520.04909,206.2703 c 0,-20.685 4.09995,-36.21266 12.30804,-46.5865 8.20362,-10.3739 20.51071,-15.55903 36.9223,-15.55903 14.39839,0 25.77774,5.18513 34.13907,15.55903 8.3614,10.37384 12.54198,25.83877 12.54198,46.39739 0,19.98506 -4.12062,35.31101 -12.3564,45.96904 -8.23489,10.65709 -20.18264,15.98924 -35.83408,15.98924 -15.40595,0 -27.20925,-5.20214 -35.41287,-15.60835 -8.20809,-10.40525 -12.30804,-25.79396 -12.30804,-46.16082 z m -21.73693,0.66148 c 0,19.78243 6.60718,35.66149 19.82858,47.63162 13.22142,11.97112 29.71726,17.9576 49.48586,17.9576 19.95846,0 36.6255,-5.92368 50.00382,-17.7684 13.37566,-11.84482 20.06699,-28.00697 20.06699,-48.4823 0,-19.84786 -6.40718,-35.91507 -19.219,-48.2008 -12.81186,-12.2857 -29.66802,-18.4263 -50.56773,-18.4263 -20.3368,0 -37.01733,6.1406 -50.04954,18.4263 -13.03235,12.28573 -19.54898,28.57349 -19.54898,48.86228" /><path
       id="path18"
       style="fill:#5b5b66;fill-opacity:1;fill-rule:nonzero;stroke:#5b5b66;stroke-width:0.0999959;stroke-opacity:1"
       d="m 689.62133,208.21083 c 4.71668,0.1255 9.59118,0.31464 14.62244,0.56648 5.02775,0.25274 9.39752,0.94914 13.10942,2.08659 3.71183,1.13745 6.71195,2.79736 9.00938,4.97908 2.2965,2.17709 4.10361,5.03802 5.42392,8.57759 1.31945,3.53597 1.98098,7.89922 1.98098,13.08519 0,9.03667 -2.24719,16.27345 -6.74341,21.70772 -4.49617,5.43341 -14.29258,8.1537 -29.38382,8.1537 -2.32873,0 -4.99993,-0.12545 -8.01891,-0.37728 z m 96.58364,-66.10274 h -34.39452 c -6.09257,4.22155 -15.42022,15.39053 -27.98279,33.50488 -4.02381,5.7848 -8.20092,11.33829 -12.53579,16.65245 -4.33478,5.31517 -7.31789,8.55358 -8.94927,9.71604 -1.63498,1.16255 -4.18061,1.74691 -7.63346,1.74691 h -5.08781 v -28.39861 c 0,-10.06558 0.23484,-16.65435 0.70817,-19.76722 0.47237,-3.11558 1.73265,-5.42616 3.78084,-6.93566 2.0482,-1.50934 5.97339,-2.26138 11.77559,-2.26138 h 6.14459 v -4.25741 h -61.40121 v 4.25741 h 4.15289 c 5.47677,0 9.26844,0.68926 11.37665,2.0759 2.10744,1.38656 3.44478,3.54307 4.01221,6.47403 0.56737,2.92642 0.85064,9.74732 0.85064,20.45644 v 62.83756 c 0,10.2027 -0.28684,16.78513 -0.85424,19.74664 -0.56649,2.95864 -1.83128,5.0067 -3.78447,6.14132 -1.95408,1.13481 -6.18047,1.70133 -12.67915,1.70133 h -2.17815 v 4.25738 l 18.3236,0.9421 c 12.21301,0.56737 21.91163,0.85056 29.09339,0.85056 12.213,0 22.14654,-1.13388 29.79704,-3.39878 7.65051,-2.26588 13.83813,-5.97662 18.56113,-11.13394 4.72025,-5.16095 7.08306,-11.32309 7.08306,-18.49445 0,-8.36886 -3.08077,-15.51065 -9.24333,-21.42357 -6.16252,-5.91473 -15.21406,-9.59414 -27.15724,-11.03986 5.40596,-2.53835 14.02992,-11.85818 25.87188,-27.96482 9.65027,-13.03053 17.23802,-21.56699 22.76328,-25.60042 5.52517,-4.03336 12.05163,-6.17552 19.58647,-6.42742 v -4.25741" /><path
       id="path20"
       style="fill:#5b5b66;fill-opacity:1;fill-rule:nonzero;stroke:#5b5b66;stroke-width:0.0999959;stroke-opacity:1"
       d="m 829.18046,266.67081 v -85.66475 c 0,-12.671 0.23484,-20.83564 0.70366,-24.49076 0.46883,-3.6551 1.88416,-6.22573 4.23715,-7.7064 2.35294,-1.48075 7.32419,-2.21928 14.91913,-2.21928 11.1069,0 20.23463,1.52638 27.38856,4.58641 7.15299,3.05648 13.12996,9.07519 17.93091,18.05878 4.80007,8.98017 7.20236,20.43588 7.20236,34.36719 0,10.84 -1.39744,20.51833 -4.18786,29.02968 -2.794,8.50862 -6.79267,15.42724 -12.00327,20.75585 -5.2097,5.32489 -10.98049,8.94879 -17.31782,10.87131 -6.33734,1.92161 -14.46465,2.88428 -24.37676,2.88428 -4.76951,0 -9.60095,-0.15678 -14.49606,-0.47231 z m -39.66427,2.48901 21.03686,1.08547 c 17.54193,0.91776 29.36591,1.37937 35.4657,1.37937 18.9914,0 33.79934,-2.89863 44.42939,-8.69685 10.62732,-5.79735 18.53331,-13.66146 23.72239,-23.58822 5.18907,-9.93017 7.78405,-21.3823 7.78405,-34.36443 0,-9.38972 -1.41807,-17.97811 -4.2506,-25.76261 -2.83342,-7.78626 -6.71916,-14.2459 -11.65993,-19.38177 -4.94079,-5.13676 -10.66948,-9.04378 -17.18159,-11.72191 -6.51303,-2.6782 -12.69617,-4.34899 -18.54766,-5.01041 -5.85416,-0.66148 -14.09626,-0.99037 -24.73345,-0.99037 h -56.73747 v 4.25741 h 5.3155 c 5.50369,0 9.31684,0.69291 11.43856,2.07958 2.119,1.38646 3.47697,3.54654 4.07934,6.48016 0.60237,2.93455 0.90355,9.76179 0.90355,20.48161 v 61.87125 c 0,10.21701 -0.30118,16.82019 -0.89997,19.8174 -0.59874,2.99638 -1.85903,5.04448 -3.77816,6.15144 -1.91909,1.10243 -6.12396,1.65546 -12.60832,1.65546 h -3.77819 v 4.25742" /><path
       id="path22"
       style="fill:#5b5b66;fill-opacity:1;fill-rule:nonzero;stroke:#5b5b66;stroke-width:0.0999959;stroke-opacity:1"
       d="m 937.27615,265.79872 v 4.25738 h 58.03993 v -4.25738 h -2.68904 c -6.21178,0 -10.27232,-0.52165 -12.19092,-1.56143 -1.92709,-1.0397 -3.20911,-2.97574 -3.8633,-5.80808 -0.64556,-2.83588 -0.97692,-9.57615 -0.97692,-20.21978 v -62.83756 c 0,-10.07895 0.23246,-16.67946 0.69935,-19.795 0.46598,-3.12 1.70287,-5.4343 3.72023,-6.94635 2.01575,-1.51298 5.87105,-2.26502 11.58104,-2.26502 h 3.71956 v -4.25741 h -58.03993 v 4.25741 h 3.72885 c 5.38714,0 9.12513,0.68926 11.20483,2.0759 2.0798,1.38656 3.39739,3.54307 3.9529,6.47403 0.55563,2.92642 0.83347,9.74732 0.83347,20.45644 v 62.83756 c 0,10.2027 -0.27784,16.78513 -0.83347,19.74664 -0.55551,2.95864 -1.80142,5.0067 -3.71999,6.14132 -1.92785,1.13481 -6.0774,1.70133 -12.46851,1.70133 h -2.69808" /><path
       id="path24"
       style="fill:#5b5b66;fill-opacity:1;fill-rule:nonzero;stroke:#5b5b66;stroke-width:0.0999959;stroke-opacity:1"
       d="m 1009.5773,239.1335 h -4.2574 l 0.6539,30.9226 h 124.4073 l 0.6543,-30.9226 h -4.0338 c -1.4432,8.43512 -3.4334,14.52736 -5.9526,18.27307 -2.5187,3.74651 -5.2252,6.04286 -8.1291,6.89439 -2.8956,0.84693 -7.8435,1.27364 -14.8352,1.27364 h -20.6073 v -90.25563 c 0,-9.99832 0.2413,-16.56644 0.7084,-19.71072 0.466,-3.14425 1.7385,-5.47187 3.8088,-6.98137 2.0801,-1.50934 5.9703,-2.26138 11.6802,-2.26138 h 6.2118 v -4.25741 h -63.867 v 4.25741 h 6.589 c 5.4498,0 9.2323,0.68926 11.339,2.07227 2.0974,1.38302 3.4421,3.53595 4.0432,6.45973 0.591,2.92374 0.8876,9.73034 0.8876,20.42147 v 90.25563 h -18.9857 c -8.2466,0 -13.7865,-0.39532 -16.6188,-1.17958 -2.8325,-0.78781 -5.4947,-3.16485 -7.9775,-7.13188 -2.4918,-3.96704 -4.3928,-10.01 -5.7191,-18.12964" /><path
       id="path26"
       style="fill:#5b5b66;fill-opacity:1;fill-rule:nonzero;stroke:#5b5b66;stroke-width:0.0999959;stroke-opacity:1"
       d="m 1200.9787,193.64583 -22.5627,54.4579 -22.5332,-54.4579 z m 1.7663,-4.2584 h -48.6193 l -3.3886,-8.15012 c -4.9115,-11.81331 -7.3677,-19.52253 -7.3677,-23.12206 0,-3.85503 1.3084,-6.77878 3.9258,-8.76682 2.6166,-1.98887 6.0052,-2.98293 10.1648,-2.98293 v -4.25741 h -38.3199 v 4.25741 c 5.6661,0.88198 9.8691,2.88793 12.6391,6.01432 2.77,3.12357 6.0956,9.70872 9.9945,19.75101 0.4032,0.94467 1.9361,4.60254 4.6163,10.9717 l 37.3159,88.74623 h 3.7914 l 42.7739,-101.61275 5.8539,-13.3989 c 1.309,-3.04567 3.0661,-5.44421 5.2799,-7.18752 2.2138,-1.74783 5.5309,-2.84299 9.9497,-3.28409 v -4.25741 h -50.1968 v 4.25741 c 6.1761,0 10.3444,0.45804 12.5131,1.3758 2.1788,0.91706 3.2629,2.73392 3.2629,5.45142 0,1.38926 -1.4529,5.53203 -4.3472,12.42555 l -9.8417,23.76916" /><path
       id="path106"
       style="fill:#fddd04;fill-opacity:1;fill-rule:nonzero;stroke:none;stroke-width:0.1"
       d="m 243.545,196.79 c 6.432,-11.225 12.259,-22.418 17.682,-33.127 8.27,-16.312 21.05,-54.146 23.732,-77.0271 -31.018,0.75 -62.096,6.843 -100.676,17.7281 -5.648,1.59 -11.087,3.25 -16.357,4.953" /><path
       id="path108"
       style="fill:#15569b;fill-opacity:1;fill-rule:nonzero;stroke:none;stroke-width:0.1"
       d="M 72.5996,153.437 C 88.382,74.8039 98.9949,59.4309 98.9949,59.4309 c 0,0 31.6261,17.8589 68.9311,49.8861" /><path
       id="path110"
       style="fill:#ee293d;fill-opacity:1;fill-rule:nonzero;stroke:none;stroke-width:0.1"
       d="M 60.8484,258.814 C 47.7012,249.606 25.6746,233.165 0,207.237 c 0,0 28.8977,-27.595 63.6652,-48.483 2.9746,-1.786 5.95,-3.56 8.9344,-5.317" /><path
       id="path112"
       style="fill:#173a79;fill-opacity:1;fill-rule:nonzero;stroke:none;stroke-width:0.1"
       d="m 60.8484,258.814 c -0.0664,6.373 0.0063,12.724 0.2454,18.996 0.4921,12.928 2.0382,53.446 8.382,79.877 0,0 38.4392,-17.265 83.4322,-54.683" /><path
       id="path114"
       style="fill:#ee2922;fill-opacity:1;fill-rule:nonzero;stroke:none;stroke-width:0.1"
       d="m 243.545,196.79 c 5.248,9.332 10.245,19.565 14.788,30.819 17.671,43.781 24.825,91.516 24.825,91.516 0,0 -69.305,1.047 -119.633,-13.035 -3.649,-1.022 -7.183,-2.05 -10.617,-3.086" /><path
       id="path116"
       style="fill:#ffffff;fill-opacity:1;fill-rule:nonzero;stroke:none;stroke-width:0.1"
       d="m 60.8484,258.814 c 2.6418,1.852 4.9329,3.416 6.8137,4.7 24.9817,17.055 49.5399,28.731 85.2459,39.49 20.7,-17.211 42.786,-38.685 63.155,-64.71 10.382,-13.262 19.408,-27.407 27.482,-41.504 -11.85,-21.073 -25.005,-37.542 -37.232,-50.695 -12.786,-13.754 -25.904,-26.059 -38.387,-36.778 -38.286,12.379 -67.278,27.594 -95.3264,44.12 -0.5586,2.789 -1.1238,5.645 -1.6973,8.599 -5.0312,25.932 -9.6875,61.652 -10.0539,96.778" /></g><g
     transform="matrix(1.3333333,0,0,-1.3333333,-36.585333,-438.13419)"
     id="g91"><path
       id="path1"
       style="fill:#231f20;fill-opacity:1;fill-rule:nonzero;stroke:none;stroke-width:0.1"
       d="m 477.958,101.021 -101.066,134.04 v -99.138 c 0,-8.219 0.402,-13.625 1.214,-16.223 0.809,-2.601 3.114,-4.988 6.918,-7.164 3.805,-2.18 9.508,-3.265 17.118,-3.265 v -4.75 h -53.5 v 4.75 c 6.82,0.492 12.027,1.738 15.613,3.742 3.586,2 5.715,4.16 6.383,6.48 0.668,2.32 1.004,7.801 1.004,16.449 v 75.798 c 0,10.961 -0.512,18.305 -1.536,22.031 -1.023,3.723 -2.644,6.114 -4.863,7.168 -2.219,1.055 -7.172,1.582 -14.851,1.582 v 4.75 h 42.281 l 84.219,-111.696 v 85.45 c 0,6.321 -0.649,10.746 -1.942,13.278 -1.297,2.527 -3.937,4.527 -7.926,6.004 -3.992,1.476 -8.785,2.214 -14.382,2.214 v 4.75 h 51.5 v -4.75 c -5.954,-0.492 -10.641,-1.656 -14.063,-3.484 -3.426,-1.828 -5.605,-4.027 -6.539,-6.594 -0.934,-2.57 -1.398,-6.914 -1.398,-13.031 V 101.021 h -4.184" /><path
       id="path2"
       style="fill:#231f20;fill-opacity:1;fill-rule:nonzero;stroke:none;stroke-width:0.1"
       d="m 539.866,176.106 c 0,-23.078 4.574,-40.402 13.731,-51.976 9.152,-11.574 22.882,-17.359 41.191,-17.359 16.063,0 28.758,5.785 38.086,17.359 9.328,11.574 13.992,28.828 13.992,51.765 0,22.297 -4.597,39.396 -13.785,51.287 -9.187,11.89 -22.516,17.839 -39.977,17.839 -17.187,0 -30.355,-5.804 -39.507,-17.414 -9.157,-11.609 -13.731,-28.778 -13.731,-51.501 z m -24.25,0.738 c 0,22.071 7.371,39.787 22.121,53.142 14.75,13.356 33.153,20.035 55.207,20.035 22.266,0 40.86,-6.609 55.785,-19.824 14.922,-13.215 22.387,-31.247 22.387,-54.091 0,-22.144 -7.148,-40.07 -21.441,-53.777 -14.293,-13.707 -33.098,-20.558 -56.414,-20.558 -22.688,0 -41.297,6.851 -55.836,20.558 -14.539,13.707 -21.809,31.879 -21.809,54.515" /><path
       id="path3"
       style="fill:#231f20;fill-opacity:1;fill-rule:nonzero;stroke:none;stroke-width:0.1"
       d="m 729.043,178.271 c 5.262,0.14 10.7,0.351 16.313,0.632 5.609,0.282 10.484,1.059 14.625,2.328 4.141,1.269 7.488,3.121 10.051,5.555 2.562,2.429 4.578,5.621 6.051,9.57 1.472,3.945 2.21,8.813 2.21,14.599 0,10.082 -2.507,18.156 -7.523,24.219 -5.016,6.062 -15.945,9.097 -32.781,9.097 -2.598,0 -5.578,-0.14 -8.946,-0.421 z m 107.75,-73.75 h -38.371 c -6.797,4.71 -17.203,17.171 -31.218,37.381 -4.489,6.454 -9.149,12.65 -13.985,18.579 -4.836,5.93 -8.164,9.543 -9.984,10.84 -1.824,1.297 -4.664,1.949 -8.516,1.949 h -5.676 v -31.684 c 0,-11.23 0.262,-18.581 0.79,-22.054 0.527,-3.476 1.933,-6.054 4.218,-7.738 2.285,-1.684 6.664,-2.523 13.137,-2.523 h 6.855 v -4.75 h -68.5 v 4.75 h 4.633 c 6.11,0 10.34,0.769 12.692,2.316 2.351,1.547 3.843,3.953 4.476,7.223 0.633,3.265 0.949,10.875 0.949,22.823 v 70.107 c 0,11.383 -0.32,18.727 -0.953,22.031 -0.632,3.301 -2.043,5.586 -4.222,6.852 -2.18,1.266 -6.895,1.898 -14.145,1.898 h -2.43 v 4.75 l 20.442,1.051 c 13.625,0.633 24.445,0.949 32.457,0.949 13.625,0 24.707,-1.265 33.242,-3.792 8.535,-2.528 15.438,-6.668 20.707,-12.422 5.266,-5.758 7.902,-12.633 7.902,-20.634 0,-9.337 -3.437,-17.305 -10.312,-23.902 -6.875,-6.599 -16.973,-10.704 -30.297,-12.317 6.031,-2.832 15.652,-13.23 28.863,-31.2 10.766,-14.538 19.231,-24.062 25.395,-28.562 6.164,-4.5 13.445,-6.89 21.851,-7.171 v -4.75" /><path
       id="path4"
       style="fill:#231f20;fill-opacity:1;fill-rule:nonzero;stroke:none;stroke-width:0.1"
       d="m 884.737,243.494 v -95.575 c 0,-14.137 0.262,-23.246 0.785,-27.324 0.523,-4.078 2.102,-6.946 4.727,-8.598 2.625,-1.652 8.171,-2.476 16.644,-2.476 12.391,0 22.574,1.703 30.555,5.117 7.98,3.41 14.648,10.125 20.004,20.148 5.355,10.019 8.035,22.8 8.035,38.343 0,12.094 -1.559,22.892 -4.672,32.388 -3.117,9.493 -7.578,17.212 -13.391,23.157 -5.812,5.941 -12.25,9.984 -19.32,12.129 -7.07,2.144 -16.137,3.218 -27.195,3.218 -5.321,0 -10.711,-0.175 -16.172,-0.527 z m -44.25,2.777 23.469,1.211 c 19.57,1.024 32.761,1.539 39.566,1.539 21.187,0 37.707,-3.234 49.566,-9.703 11.856,-6.468 20.676,-15.242 26.465,-26.317 5.789,-11.079 8.684,-23.856 8.684,-38.34 0,-10.476 -1.582,-20.058 -4.742,-28.743 -3.161,-8.687 -7.496,-15.894 -13.008,-21.624 -5.512,-5.731 -11.903,-10.09 -19.168,-13.078 -7.266,-2.988 -14.164,-4.852 -20.692,-5.59 -6.531,-0.738 -15.726,-1.105 -27.593,-1.105 h -63.297 v 4.75 h 5.93 c 6.14,0 10.394,0.773 12.761,2.32 2.364,1.547 3.879,3.957 4.551,7.23 0.672,3.274 1.008,10.891 1.008,22.851 v 69.029 c 0,11.399 -0.336,18.766 -1.004,22.11 -0.668,3.343 -2.074,5.628 -4.215,6.863 -2.141,1.23 -6.832,1.847 -14.066,1.847 h -4.215 v 4.75" /><path
       id="path5"
       style="fill:#231f20;fill-opacity:1;fill-rule:nonzero;stroke:none;stroke-width:0.1"
       d="m 1005.33,242.521 v 4.75 h 64.75 v -4.75 h -3 c -6.93,0 -11.46,-0.582 -13.6,-1.742 -2.15,-1.16 -3.58,-3.32 -4.31,-6.48 -0.72,-3.164 -1.09,-10.684 -1.09,-22.559 v -70.107 c 0,-11.245 0.26,-18.609 0.78,-22.085 0.52,-3.481 1.9,-6.063 4.15,-7.75 2.25,-1.688 6.55,-2.527 12.92,-2.527 h 4.15 v -4.75 h -64.75 v 4.75 h 4.16 c 6.01,0 10.18,0.769 12.5,2.316 2.32,1.547 3.79,3.953 4.41,7.223 0.62,3.265 0.93,10.875 0.93,22.823 v 70.107 c 0,11.383 -0.31,18.727 -0.93,22.031 -0.62,3.301 -2.01,5.586 -4.15,6.852 -2.15,1.266 -6.78,1.898 -13.91,1.898 h -3.01" /><path
       id="path6"
       style="fill:#231f20;fill-opacity:1;fill-rule:nonzero;stroke:none;stroke-width:0.1"
       d="m 1085.99,212.771 h -4.75 l 0.73,34.5 h 138.79 l 0.73,-34.5 h -4.5 c -1.61,9.411 -3.83,16.208 -6.64,20.387 -2.81,4.18 -5.83,6.742 -9.07,7.692 -3.23,0.945 -8.75,1.421 -16.55,1.421 h -22.99 V 141.574 c 0,-11.155 0.27,-18.483 0.79,-21.991 0.52,-3.508 1.94,-6.105 4.25,-7.789 2.32,-1.684 6.66,-2.523 13.03,-2.523 h 6.93 v -4.75 h -71.25 v 4.75 h 7.35 c 6.08,0 10.3,0.769 12.65,2.312 2.34,1.543 3.84,3.945 4.51,7.207 0.66,3.262 0.99,10.856 0.99,22.784 v 100.697 h -21.18 c -9.2,0 -15.38,-0.441 -18.54,-1.316 -3.16,-0.879 -6.13,-3.531 -8.9,-7.957 -2.78,-4.426 -4.9,-11.168 -6.38,-20.227" /><path
       id="path7"
       style="fill:#231f20;fill-opacity:1;fill-rule:nonzero;stroke:none;stroke-width:0.1"
       d="m 1299.52,162.021 -25.17,60.758 -25.14,-60.758 z m 1.97,-4.751 h -54.24 l -3.78,-9.093 c -5.48,-13.18 -8.22,-21.781 -8.22,-25.797 0,-4.301 1.46,-7.563 4.38,-9.781 2.92,-2.219 6.7,-3.328 11.34,-3.328 v -4.75 h -42.75 v 4.75 c 6.32,0.984 11.01,3.222 14.1,6.71 3.09,3.485 6.8,10.832 11.15,22.036 0.45,1.054 2.16,5.135 5.15,12.241 l 41.63,99.013 h 4.23 l 47.72,-113.368 6.53,-14.949 c 1.46,-3.398 3.42,-6.074 5.89,-8.019 2.47,-1.95 6.17,-3.172 11.1,-3.664 v -4.75 h -56 v 4.75 c 6.89,0 11.54,0.511 13.96,1.535 2.43,1.023 3.64,3.05 3.64,6.082 0,1.55 -1.62,6.172 -4.85,13.863 l -10.98,26.519" /><path
       id="path8"
       style="fill:#231f20;fill-opacity:1;fill-rule:nonzero;stroke:none;stroke-width:0.1"
       d="m 390.218,40.2859 h -1.405 c -0.311,5.0961 -2.288,6.4473 -7.175,6.4473 -1.925,0 -5.045,0.2598 -5.045,-1.4043 v -24.648 c 0,-3.8477 0.728,-5.3047 5.772,-5.5118 v -1.1972 c -2.86,0.0523 -5.772,0.1562 -8.632,0.209 -2.756,-0.0528 -5.46,-0.1567 -8.268,-0.209 v 1.1972 c 5.044,0.2071 5.772,1.6641 5.772,5.5118 v 24.648 c 0,1.5609 -2.288,1.4043 -4.368,1.4043 -5.148,0 -7.644,-0.2594 -7.852,-6.4473 h -1.197 v 8.111 h 31.93 l 0.468,-8.111" /><path
       id="path9"
       style="fill:#231f20;fill-opacity:1;fill-rule:nonzero;stroke:none;stroke-width:0.1"
       d="m 400.928,32.4852 h 0.104 c 1.768,2.8089 4.68,4.473 8.009,4.473 4.939,0 7.8,-2.3402 7.8,-7.2812 v -9.4122 c 0,-3.4316 -0.468,-4.9929 3.588,-5.2519 v -1.041 c -2.028,0.0523 -4.004,0.1562 -6.033,0.209 -1.872,-0.0528 -3.795,-0.1567 -5.563,-0.209 v 1.041 c 3.899,0.259 3.588,1.5082 3.588,4.9391 v 7.6972 c 0,3.3289 -0.313,7.6449 -4.733,7.6449 -2.236,0 -4.784,-1.5609 -5.824,-3.641 -0.832,-1.664 -0.936,-3.7441 -0.936,-5.6679 v -5.7204 c 0,-3.4316 -0.416,-4.9929 3.64,-5.2519 v -1.041 c -1.923,0.0523 -3.796,0.1562 -5.72,0.209 -1.976,-0.0528 -4.004,-0.1567 -5.98,-0.209 v 1.041 c 3.9,0.259 3.64,1.5082 3.64,4.9391 v 19.9691 c 0,1.3008 0,4.473 -0.52,5.5641 -0.624,1.3007 -2.184,1.198 -3.38,1.3519 v 1.041 l 8.32,1.6641 v -17.057" /><path
       id="path10"
       style="fill:#231f20;fill-opacity:1;fill-rule:nonzero;stroke:none;stroke-width:0.1"
       d="m 438.576,29.4172 c 0.832,0 2.548,-0.2602 2.548,1.041 0,3.2227 -1.768,5.3027 -5.044,5.3027 -3.9,0 -5.46,-2.9629 -6.084,-6.3437 z m 6.76,-11.5961 c -2.443,-3.0172 -5.356,-4.4199 -9.256,-4.4199 -6.448,0 -11.752,4.5238 -11.752,11.1797 0,6.5 4.94,12.3773 11.7,12.3773 5.096,0 9.932,-2.8613 9.932,-8.4773 0,-0.675 -0.779,-0.468 -1.3,-0.468 h -14.924 l -0.208,-2.4957 c 0,-4.9402 2.6,-10.4524 8.164,-10.4524 2.652,0 4.993,1.7684 6.552,3.8481 l 1.092,-1.0918" /><path
       id="path11"
       style="fill:#231f20;fill-opacity:1;fill-rule:nonzero;stroke:none;stroke-width:0.1"
       d="m 468.579,44.0809 c -1.612,2.289 -2.86,3.0683 -5.668,3.1211 v 1.1949 c 1.664,-0.05 3.277,-0.1559 4.941,-0.2071 1.351,0.0512 2.755,0.1571 4.107,0.2071 L 493.904,21.616 h 0.104 v 14.457 c 0,2.2372 0,5.877 -0.468,8.0079 -0.624,2.9121 -2.028,2.705 -4.628,3.1211 v 1.1949 c 1.924,-0.05 3.796,-0.1559 5.72,-0.2071 1.82,0.0512 3.588,0.1571 5.513,0.2071 V 47.202 c -1.924,-0.209 -3.277,-0.0528 -3.953,-2.2891 -0.52,-1.6637 -0.624,-7.0188 -0.624,-9.1 V 13.4012 h -1.56 c -1.144,1.4027 -2.288,2.8597 -3.432,4.3148 l -20.333,24.65 H 470.14 V 24.8941 c 0,-1.9242 0,-5.825 0.779,-7.5941 0.885,-2.0281 2.601,-1.9238 4.524,-2.1309 v -1.1972 c -1.975,0.0523 -4.004,0.1562 -5.98,0.209 -1.924,-0.0528 -3.848,-0.1567 -5.772,-0.209 v 1.1972 c 2.028,0.2071 3.953,0.3118 4.472,2.5469 0.416,1.8731 0.416,5.1481 0.416,7.1781 v 19.1868" /><path
       id="path12"
       style="fill:#231f20;fill-opacity:1;fill-rule:nonzero;stroke:none;stroke-width:0.1"
       d="m 508.567,25.257 c 0,-4.9398 1.456,-10.6601 7.54,-10.6601 5.669,0 7.073,5.7203 7.073,10.3472 0,4.993 -1.404,10.8168 -7.54,10.8168 -5.668,0 -7.073,-5.9808 -7.073,-10.5039 z m 19.813,0 c 0,-7.0199 -5.72,-11.8558 -12.532,-11.8558 -6.761,0 -12.481,5.2 -12.481,12.0648 0,6.6559 6.136,11.4922 12.481,11.4922 6.448,0 12.532,-4.9922 12.532,-11.7012" /><path
       id="path13"
       style="fill:#231f20;fill-opacity:1;fill-rule:nonzero;stroke:none;stroke-width:0.1"
       d="m 535.867,26.3488 c 0,1.4043 0.052,5.0953 -0.312,6.2934 -0.468,1.8707 -1.768,1.6637 -3.432,1.6637 v 1.039 c 2.444,0.1563 4.732,1.0922 7.02,1.6133 0.468,-1.5082 0.676,-3.3812 0.624,-5.2523 h 0.104 c 1.352,3.1722 3.952,5.2523 7.54,5.2523 1.612,0 3.693,-0.7812 3.693,-2.7051 0,-0.9883 -0.833,-1.8711 -1.821,-1.8711 -2.183,0 -1.716,2.7032 -3.744,2.7032 -1.56,0 -3.276,-1.2993 -4.056,-2.6 -1.196,-2.1321 -1.196,-4.6793 -1.196,-7.0723 v -5.1481 c 0,-3.7968 -0.416,-5.0449 3.952,-5.2519 v -1.041 c -1.976,0.0523 -4.004,0.1562 -5.98,0.209 -2.028,-0.0528 -4.004,-0.1567 -6.032,-0.209 v 1.041 c 3.9,0.259 3.64,1.5082 3.64,4.9391 v 6.3968" /><path
       id="path15"
       style="fill:#231f20;fill-opacity:1;fill-rule:nonzero;stroke:none;stroke-width:0.1"
       d="m 571.695,29.9891 c 0,3.2757 -3.172,5.305 -6.188,5.305 -5.616,0 -7.124,-5.8769 -7.124,-10.4 0,-4.682 1.508,-10.0902 7.124,-10.0902 4.681,0 6.188,3.693 6.188,7.8012 z m 1.716,-16.5879 c -0.572,1.1957 -0.884,2.5468 -1.04,3.9519 -2.236,-2.7039 -4.576,-3.9519 -8.112,-3.9519 -6.552,0 -11.076,5.0429 -11.076,11.4929 0,6.343 4.472,12.0641 11.076,12.0641 2.86,0 5.564,-1.041 7.436,-3.225 V 41.95 c 0,3.1191 -0.156,4.7832 -3.9,4.8871 v 1.041 l 8.32,1.6641 V 23.2801 c 0,-1.4551 0,-4.0539 0.521,-5.4082 0.676,-1.8199 2.08,-1.7149 3.744,-1.7149 v -1.041 l -6.969,-1.7148" /><path
       id="path17"
       style="fill:#231f20;fill-opacity:1;fill-rule:nonzero;stroke:none;stroke-width:0.1"
       d="m 585.266,46.2141 c 0,1.5601 1.248,2.8078 2.808,2.8078 1.56,0 2.756,-1.2477 2.756,-2.8078 0,-1.5082 -1.196,-2.7559 -2.652,-2.7559 -1.56,0 -2.912,1.1449 -2.912,2.7559 z m 5.616,-9.2559 V 20.2648 c 0.104,-3.4316 -0.468,-4.9929 3.64,-5.2519 v -1.041 c -1.768,0.0523 -3.692,0.1562 -5.564,0.209 -2.028,-0.0528 -4.056,-0.1567 -6.084,-0.209 v 1.041 c 3.848,0.259 3.536,1.5082 3.588,4.9391 v 7.4378 c 0,0.9883 0,4.9922 -0.208,5.7711 -0.364,1.3012 -2.548,1.195 -3.588,1.145 v 1.039 l 8.216,1.6133" /><path
       id="path19"
       style="fill:#231f20;fill-opacity:1;fill-rule:nonzero;stroke:none;stroke-width:0.1"
       d="m 618.339,17.4051 c -2.185,-2.7051 -5.773,-4.0039 -9.152,-4.0039 -6.449,0 -11.181,4.5769 -11.181,11.0238 0,7.2809 5.512,12.5332 12.74,12.5332 2.028,0 6.761,-0.625 6.761,-3.4844 0,-0.9359 -0.78,-1.9238 -1.716,-1.9238 -1.249,0 -1.925,1.0391 -2.289,2.027 -0.624,1.5609 -1.04,1.9769 -2.964,1.9769 -5.616,0 -7.332,-5.7207 -7.332,-10.2969 0,-4.9922 1.612,-10.1922 7.488,-10.1922 2.6,0 4.889,1.3524 6.553,3.2762 l 1.092,-0.9359" /><path
       id="path21"
       style="fill:#231f20;fill-opacity:1;fill-rule:nonzero;stroke:none;stroke-width:0.1"
       d="m 640.073,38.5172 c 0,1.6637 0,5.5129 -0.52,6.918 -0.676,1.7668 -2.808,1.7668 -4.472,1.7668 v 1.1949 c 2.496,-0.05 4.992,-0.1559 7.488,-0.2071 2.652,0.0512 5.252,0.1571 7.852,0.2071 V 47.202 c -1.664,0 -3.796,0 -4.472,-1.7668 -0.52,-1.4051 -0.52,-5.2543 -0.52,-6.918 V 23.8531 c 0,-1.6652 0,-5.5121 0.52,-6.916 0.676,-1.768 2.808,-1.768 4.472,-1.768 v -1.1972 c -2.443,0.0523 -4.992,0.1562 -7.488,0.209 -2.6,-0.0528 -5.252,-0.1567 -7.852,-0.209 v 1.1972 c 1.664,0 3.796,0 4.472,1.768 0.52,1.4039 0.52,5.2508 0.52,6.916 v 14.6641" /><path
       id="path23"
       style="fill:#231f20;fill-opacity:1;fill-rule:nonzero;stroke:none;stroke-width:0.1"
       d="m 677.825,20.2648 c 0,-3.4316 -0.416,-4.9929 3.639,-5.2519 v -1.041 c -1.871,0.0523 -3.795,0.1562 -5.667,0.209 -2.028,-0.0528 -4.004,-0.1567 -6.032,-0.209 v 1.041 c 3.9,0.259 3.639,1.5082 3.639,4.9391 v 6.6562 c 0,3.5879 0.157,8.6859 -4.783,8.6859 -4.057,0 -6.657,-3.1722 -6.657,-6.9691 v -8.0602 c 0,-3.4316 -0.468,-4.9929 3.64,-5.2519 v -1.041 c -1.872,0.0523 -3.795,0.1562 -5.667,0.209 -2.029,-0.0528 -4.005,-0.1567 -6.033,-0.209 v 1.041 c 3.9,0.259 3.64,1.5082 3.64,4.9391 v 6.3968 c 0,1.4571 0,5.0953 -0.26,6.2934 -0.416,1.8707 -1.82,1.6637 -3.484,1.6637 v 1.039 c 2.704,0.3121 4.628,1.1442 7.177,1.6133 l 0.675,-4.732 h 0.104 c 1.82,3.2238 4.629,4.732 8.32,4.732 4.941,0 7.749,-2.2363 7.749,-7.1781 v -9.5153" /><path
       id="path25"
       style="fill:#231f20;fill-opacity:1;fill-rule:nonzero;stroke:none;stroke-width:0.1"
       d="m 685.675,13.7648 h -0.519 L 684.947,21.2 h 1.041 c 0.832,-3.3281 2.599,-6.6031 6.447,-6.6031 2.289,0 4.369,1.1441 4.369,3.6402 0,2.9629 -3.017,4.1598 -5.252,5.3027 -3.017,1.5614 -6.24,3.2774 -6.24,7.1782 0,3.5879 2.859,6.2402 6.447,6.2402 1.612,0 3.588,-0.4691 5.045,-1.3012 l 1.039,1.2481 h 0.625 l -0.105,-6.5 h -1.039 c -0.936,2.6 -2.08,5.3558 -5.356,5.3558 -1.717,0 -3.328,-0.989 -3.328,-2.8597 0,-2.7051 2.86,-3.6403 4.836,-4.7321 3.588,-1.8711 6.863,-3.225 6.863,-7.9043 0,-4.2636 -3.64,-6.8636 -7.644,-6.8636 -1.975,0 -4.16,0.623 -5.719,1.8707 l -1.301,-1.5071" /><path
       id="path27"
       style="fill:#231f20;fill-opacity:1;fill-rule:nonzero;stroke:none;stroke-width:0.1"
       d="m 704.343,34.6691 v 0.936 c 2.6,1.509 5.199,3.589 6.291,6.5519 h 0.782 v -6.084 h 5.927 v -1.4039 h -5.927 V 19.8488 c 0,-2.3398 0.466,-4.784 3.224,-4.784 1.818,0 2.756,1.0403 3.744,2.3403 l 0.936,-0.675 c -0.936,-2.4969 -3.537,-3.3289 -6.033,-3.3289 -3.745,0 -6.291,1.4547 -6.291,5.3558 v 15.9121 h -2.653" /><path
       id="path29"
       style="fill:#231f20;fill-opacity:1;fill-rule:nonzero;stroke:none;stroke-width:0.1"
       d="m 722.542,46.2141 c 0,1.5601 1.249,2.8078 2.809,2.8078 1.561,0 2.756,-1.2477 2.756,-2.8078 0,-1.5082 -1.195,-2.7559 -2.652,-2.7559 -1.561,0 -2.913,1.1449 -2.913,2.7559 z m 5.618,-9.2559 V 20.2648 c 0.103,-3.4316 -0.469,-4.9929 3.638,-5.2519 v -1.041 c -1.767,0.0523 -3.691,0.1562 -5.564,0.209 -2.027,-0.0528 -4.055,-0.1567 -6.084,-0.209 v 1.041 c 3.85,0.259 3.537,1.5082 3.588,4.9391 v 7.4378 c 0,0.9883 0,4.9922 -0.207,5.7711 -0.364,1.3012 -2.549,1.195 -3.588,1.145 v 1.039 l 8.217,1.6133" /><path
       id="path31"
       style="fill:#231f20;fill-opacity:1;fill-rule:nonzero;stroke:none;stroke-width:0.1"
       d="m 735.542,34.6691 v 0.936 c 2.6,1.509 5.2,3.589 6.291,6.5519 h 0.782 v -6.084 h 5.927 v -1.4039 h -5.927 V 19.8488 c 0,-2.3398 0.467,-4.784 3.224,-4.784 1.819,0 2.756,1.0403 3.744,2.3403 l 0.936,-0.675 c -0.936,-2.4969 -3.537,-3.3289 -6.033,-3.3289 -3.744,0 -6.291,1.4547 -6.291,5.3558 v 15.9121 h -2.653" /><path
       id="path33"
       style="fill:#231f20;fill-opacity:1;fill-rule:nonzero;stroke:none;stroke-width:0.1"
       d="m 759.203,22.2922 c 0,-3.066 0.259,-7.2274 4.316,-7.2274 4.107,0 7.123,3.6922 7.123,7.6961 v 6.9692 c 0,3.9508 0.313,5.148 -3.951,5.7711 v 1.041 c 1.455,-0.1051 2.859,-0.1563 4.316,-0.2602 1.352,0.1039 2.756,0.1551 4.055,0.2602 V 19.7961 c 0,-1.402 0,-3.4832 1.924,-3.4832 0.625,0 1.301,0.1043 1.976,0.1551 v -1.1961 l -7.228,-1.8707 -1.092,4.8867 c -1.871,-2.859 -5.199,-4.8867 -8.684,-4.8867 -5.251,0 -7.175,2.8597 -7.175,7.4359 v 8.893 c 0,3.9508 0.31,5.148 -3.953,5.7711 v 0.9879 c 1.457,-0.052 2.859,-0.1559 4.316,-0.2071 1.352,0.0512 2.756,0.1551 4.057,0.2071 V 22.2922" /><path
       id="path35"
       style="fill:#231f20;fill-opacity:1;fill-rule:nonzero;stroke:none;stroke-width:0.1"
       d="m 782.341,34.6691 v 0.936 c 2.6,1.509 5.2,3.589 6.291,6.5519 h 0.782 v -6.084 h 5.927 v -1.4039 h -5.927 V 19.8488 c 0,-2.3398 0.466,-4.784 3.224,-4.784 1.819,0 2.756,1.0403 3.744,2.3403 l 0.936,-0.675 c -0.936,-2.4969 -3.537,-3.3289 -6.033,-3.3289 -3.744,0 -6.291,1.4547 -6.291,5.3558 v 15.9121 h -2.653" /><path
       id="path37"
       style="fill:#231f20;fill-opacity:1;fill-rule:nonzero;stroke:none;stroke-width:0.1"
       d="m 812.968,29.4172 c 0.832,0 2.549,-0.2602 2.549,1.041 0,3.2227 -1.767,5.3027 -5.045,5.3027 -3.898,0 -5.459,-2.9629 -6.084,-6.3437 z m 6.762,-11.5961 c -2.445,-3.0172 -5.357,-4.4199 -9.258,-4.4199 -6.447,0 -11.752,4.5238 -11.752,11.1797 0,6.5 4.942,12.3773 11.701,12.3773 5.096,0 9.932,-2.8613 9.932,-8.4773 0,-0.675 -0.779,-0.468 -1.299,-0.468 h -14.926 l -0.207,-2.4957 c 0,-4.9402 2.6,-10.4524 8.164,-10.4524 2.653,0 4.993,1.7684 6.553,3.8481 l 1.092,-1.0918" /><path
       id="path39"
       style="fill:#231f20;fill-opacity:1;fill-rule:nonzero;stroke:none;stroke-width:0.1"
       d="m 836.941,33.9398 v 1.4051 h 4.16 v 2.8082 c 0,6.709 2.443,10.8688 9.672,10.8688 1.924,0 6.344,-0.5719 6.344,-3.277 0,-0.9347 -0.885,-1.664 -1.821,-1.664 -1.039,0 -1.507,0.6761 -1.82,1.457 -0.572,1.5082 -1.195,2.2871 -3.016,2.2871 -1.976,0 -3.38,-0.623 -4.16,-2.4961 -0.779,-1.8707 -0.779,-4.3668 -0.779,-6.3957 v -3.5883 h 6.396 v -1.4051 h -6.396 V 20.1609 c 0,-1.3007 0.207,-2.5488 0.467,-3.2238 0.781,-2.1332 3.328,-1.8211 5.201,-1.9242 v -1.041 c -2.496,0.0523 -4.941,0.1562 -7.438,0.209 -2.39,-0.0528 -4.73,-0.1567 -7.123,-0.209 v 1.041 c 4.577,0.259 4.473,1.6641 4.473,5.7203 v 13.2066 h -4.16" /><path
       id="path41"
       style="fill:#231f20;fill-opacity:1;fill-rule:nonzero;stroke:none;stroke-width:0.1"
       d="m 860.08,25.257 c 0,-4.9398 1.457,-10.6601 7.541,-10.6601 5.668,0 7.072,5.7203 7.072,10.3472 0,4.993 -1.404,10.8168 -7.541,10.8168 -5.668,0 -7.072,-5.9808 -7.072,-10.5039 z m 19.812,0 c 0,-7.0199 -5.719,-11.8558 -12.531,-11.8558 -6.762,0 -12.481,5.2 -12.481,12.0648 0,6.6559 6.135,11.4922 12.481,11.4922 6.447,0 12.531,-4.9922 12.531,-11.7012" /><path
       id="path43"
       style="fill:#231f20;fill-opacity:1;fill-rule:nonzero;stroke:none;stroke-width:0.1"
       d="m 887.38,26.3488 c 0,1.4043 0.051,5.0953 -0.312,6.2934 -0.469,1.8707 -1.768,1.6637 -3.432,1.6637 v 1.039 c 2.444,0.1563 4.733,1.0922 7.02,1.6133 0.469,-1.5082 0.676,-3.3812 0.625,-5.2523 h 0.103 c 1.352,3.1722 3.951,5.2523 7.541,5.2523 1.612,0 3.692,-0.7812 3.692,-2.7051 0,-0.9883 -0.832,-1.8711 -1.821,-1.8711 -2.183,0 -1.716,2.7032 -3.744,2.7032 -1.56,0 -3.275,-1.2993 -4.056,-2.6 C 891.8,30.3531 891.8,27.8059 891.8,25.4129 v -5.1481 c 0,-3.7968 -0.416,-5.0449 3.951,-5.2519 v -1.041 c -1.974,0.0523 -4.003,0.1562 -5.978,0.209 -2.029,-0.0528 -4.006,-0.1567 -6.033,-0.209 v 1.041 c 3.9,0.259 3.64,1.5082 3.64,4.9391 v 6.3968" /><path
       id="path45"
       style="fill:#231f20;fill-opacity:1;fill-rule:nonzero;stroke:none;stroke-width:0.1"
       d="m 949.728,40.2859 h -1.404 c -0.311,5.0961 -2.287,6.4473 -7.176,6.4473 -1.924,0 -5.045,0.2598 -5.045,-1.4043 v -24.648 c 0,-3.8477 0.729,-5.3047 5.773,-5.5118 v -1.1972 c -2.861,0.0523 -5.773,0.1562 -8.632,0.209 -2.756,-0.0528 -5.461,-0.1567 -8.268,-0.209 v 1.1972 c 5.043,0.2071 5.772,1.6641 5.772,5.5118 v 24.648 c 0,1.5609 -2.288,1.4043 -4.368,1.4043 -5.148,0 -7.644,-0.2594 -7.853,-6.4473 h -1.195 v 8.111 h 31.929 l 0.467,-8.111" /><path
       id="path47"
       style="fill:#231f20;fill-opacity:1;fill-rule:nonzero;stroke:none;stroke-width:0.1"
       d="m 960.439,32.4852 h 0.103 c 1.768,2.8089 4.68,4.473 8.008,4.473 4.942,0 7.801,-2.3402 7.801,-7.2812 v -9.4122 c 0,-3.4316 -0.467,-4.9929 3.588,-5.2519 v -1.041 c -2.027,0.0523 -4.004,0.1562 -6.031,0.209 -1.873,-0.0528 -3.797,-0.1567 -5.565,-0.209 v 1.041 c 3.901,0.259 3.588,1.5082 3.588,4.9391 v 7.6972 c 0,3.3289 -0.312,7.6449 -4.732,7.6449 -2.237,0 -4.783,-1.5609 -5.824,-3.641 -0.833,-1.664 -0.936,-3.7441 -0.936,-5.6679 v -5.7204 c 0,-3.4316 -0.416,-4.9929 3.641,-5.2519 v -1.041 c -1.924,0.0523 -3.797,0.1562 -5.721,0.209 -1.977,-0.0528 -4.004,-0.1567 -5.981,-0.209 v 1.041 c 3.901,0.259 3.641,1.5082 3.641,4.9391 v 19.9691 c 0,1.3008 0,4.473 -0.519,5.5641 -0.625,1.3007 -2.186,1.198 -3.381,1.3519 v 1.041 l 8.32,1.6641 v -17.057" /><path
       id="path49"
       style="fill:#231f20;fill-opacity:1;fill-rule:nonzero;stroke:none;stroke-width:0.1"
       d="m 998.087,29.4172 c 0.832,0 2.553,-0.2602 2.553,1.041 0,3.2227 -1.773,5.3027 -5.049,5.3027 -3.9,0 -5.461,-2.9629 -6.084,-6.3437 z m 6.763,-11.5961 c -2.45,-3.0172 -5.358,-4.4199 -9.259,-4.4199 -6.449,0 -11.752,4.5238 -11.752,11.1797 0,6.5 4.94,12.3773 11.7,12.3773 5.101,0 9.931,-2.8613 9.931,-8.4773 0,-0.675 -0.78,-0.468 -1.3,-0.468 h -14.922 l -0.209,-2.4957 c 0,-4.9402 2.599,-10.4524 8.164,-10.4524 2.652,0 4.987,1.7684 6.557,3.8481 l 1.09,-1.0918" /><path
       id="path51"
       style="fill:#231f20;fill-opacity:1;fill-rule:nonzero;stroke:none;stroke-width:0.1"
       d="m 1015.04,25.257 c 0,-4.9398 1.46,-10.6601 7.54,-10.6601 5.67,0 7.07,5.7203 7.07,10.3472 0,4.993 -1.4,10.8168 -7.54,10.8168 -5.67,0 -7.07,-5.9808 -7.07,-10.5039 z m 19.81,0 c 0,-7.0199 -5.72,-11.8558 -12.53,-11.8558 -6.76,0 -12.48,5.2 -12.48,12.0648 0,6.6559 6.13,11.4922 12.48,11.4922 6.45,0 12.53,-4.9922 12.53,-11.7012" /><path
       id="path53"
       style="fill:#231f20;fill-opacity:1;fill-rule:nonzero;stroke:none;stroke-width:0.1"
       d="m 1042.34,26.3488 c 0,1.4043 0.05,5.0953 -0.31,6.2934 -0.47,1.8707 -1.77,1.6637 -3.44,1.6637 v 1.039 c 2.45,0.1563 4.74,1.0922 7.02,1.6133 0.47,-1.5082 0.68,-3.3812 0.63,-5.2523 h 0.1 c 1.35,3.1722 3.95,5.2523 7.54,5.2523 1.61,0 3.69,-0.7812 3.69,-2.7051 0,-0.9883 -0.83,-1.8711 -1.81,-1.8711 -2.19,0 -1.72,2.7032 -3.75,2.7032 -1.56,0 -3.28,-1.2993 -4.06,-2.6 -1.19,-2.1321 -1.19,-4.6793 -1.19,-7.0723 v -5.1481 c 0,-3.7968 -0.42,-5.0449 3.95,-5.2519 v -1.041 c -1.98,0.0523 -4,0.1562 -5.98,0.209 -2.03,-0.0528 -4,-0.1567 -6.03,-0.209 v 1.041 c 3.9,0.259 3.64,1.5082 3.64,4.9391 v 6.3968" /><path
       id="path55"
       style="fill:#231f20;fill-opacity:1;fill-rule:nonzero;stroke:none;stroke-width:0.1"
       d="m 1074.01,29.4172 c 0.83,0 2.54,-0.2602 2.54,1.041 0,3.2227 -1.76,5.3027 -5.04,5.3027 -3.9,0 -5.46,-2.9629 -6.08,-6.3437 z m 6.76,-11.5961 c -2.45,-3.0172 -5.36,-4.4199 -9.26,-4.4199 -6.45,0 -11.75,4.5238 -11.75,11.1797 0,6.5 4.94,12.3773 11.7,12.3773 5.09,0 9.93,-2.8613 9.93,-8.4773 0,-0.675 -0.78,-0.468 -1.3,-0.468 h -14.92 l -0.21,-2.4957 c 0,-4.9402 2.6,-10.4524 8.16,-10.4524 2.65,0 4.99,1.7684 6.56,3.8481 l 1.09,-1.0918" /><path
       id="path57"
       style="fill:#231f20;fill-opacity:1;fill-rule:nonzero;stroke:none;stroke-width:0.1"
       d="m 1086.02,34.6691 v 0.936 c 2.6,1.509 5.2,3.589 6.29,6.5519 h 0.78 v -6.084 h 5.93 v -1.4039 h -5.93 V 19.8488 c 0,-2.3398 0.47,-4.784 3.22,-4.784 1.82,0 2.76,1.0403 3.75,2.3403 l 0.93,-0.675 c -0.93,-2.4969 -3.53,-3.3289 -6.03,-3.3289 -3.74,0 -6.29,1.4547 -6.29,5.3558 v 15.9121 h -2.65" /><path
       id="path59"
       style="fill:#231f20;fill-opacity:1;fill-rule:nonzero;stroke:none;stroke-width:0.1"
       d="m 1104.22,46.2141 c 0,1.5601 1.25,2.8078 2.8,2.8078 1.57,0 2.76,-1.2477 2.76,-2.8078 0,-1.5082 -1.19,-2.7559 -2.65,-2.7559 -1.56,0 -2.91,1.1449 -2.91,2.7559 z m 5.61,-9.2559 V 20.2648 c 0.11,-3.4316 -0.47,-4.9929 3.64,-5.2519 v -1.041 c -1.76,0.0523 -3.69,0.1562 -5.56,0.209 -2.03,-0.0528 -4.06,-0.1567 -6.08,-0.209 v 1.041 c 3.84,0.259 3.53,1.5082 3.58,4.9391 v 7.4378 c 0,0.9883 0,4.9922 -0.21,5.7711 -0.36,1.3012 -2.54,1.195 -3.58,1.145 v 1.039 l 8.21,1.6133" /><path
       id="path61"
       style="fill:#231f20;fill-opacity:1;fill-rule:nonzero;stroke:none;stroke-width:0.1"
       d="m 1137.29,17.4051 c -2.18,-2.7051 -5.77,-4.0039 -9.15,-4.0039 -6.45,0 -11.18,4.5769 -11.18,11.0238 0,7.2809 5.51,12.5332 12.74,12.5332 2.03,0 6.76,-0.625 6.76,-3.4844 0,-0.9359 -0.78,-1.9238 -1.72,-1.9238 -1.25,0 -1.92,1.0391 -2.29,2.027 -0.62,1.5609 -1.04,1.9769 -2.96,1.9769 -5.62,0 -7.33,-5.7207 -7.33,-10.2969 0,-4.9922 1.61,-10.1922 7.49,-10.1922 2.6,0 4.88,1.3524 6.55,3.2762 l 1.09,-0.9359" /><path
       id="path63"
       style="fill:#231f20;fill-opacity:1;fill-rule:nonzero;stroke:none;stroke-width:0.1"
       d="m 1154.45,26.9211 c -3.12,-1.5082 -9.05,-3.5352 -9.05,-7.6949 0,-1.9262 1.2,-3.7453 3.33,-3.7453 2.03,0 4.26,1.5589 5.72,2.9632 z m -0.47,1.3008 c 0.52,0.259 0.42,0.9351 0.42,1.5082 0,3.5347 -0.31,6.0308 -4.58,6.0308 -2.6,0 -4.73,-0.207 -4.89,-2.9629 -0.1,-1.1449 -0.78,-2.289 -2.08,-2.289 -1.14,0 -1.97,0.7281 -1.97,1.873 0,3.8481 6.91,4.5762 9.56,4.5762 5.78,0 8.43,-1.5082 8.43,-7.4883 v -8.5801 c 0,-1.3007 -0.21,-5.1488 1.82,-5.1488 1.04,0 1.56,0.936 2.13,1.6641 l 0.99,-0.5211 c -0.83,-1.7149 -2.76,-3.4828 -4.68,-3.4828 -2.13,0 -3.95,1.6117 -4.47,3.6918 -2.45,-1.977 -5.46,-3.6918 -8.69,-3.6918 -2.75,0 -5.41,1.6636 -5.41,4.5769 0,4.3668 4.95,6.2399 8.27,7.7481 l 5.15,2.4957" /><path
       id="path65"
       style="fill:#231f20;fill-opacity:1;fill-rule:nonzero;stroke:none;stroke-width:0.1"
       d="m 1173.27,20.2648 c 0.11,-3.4316 -0.47,-4.9929 3.64,-5.2519 v -1.041 c -2.03,0.0523 -4,0.1562 -5.98,0.209 -1.92,-0.0528 -3.79,-0.1567 -5.72,-0.209 v 1.041 c 3.9,0.259 3.64,1.5082 3.64,4.9391 v 19.9691 c 0,1.3008 0,4.473 -0.52,5.5641 -0.62,1.3007 -2.18,1.198 -3.38,1.3519 v 1.041 l 8.32,1.6641 V 20.2648" /><path
       id="path67"
       style="fill:#231f20;fill-opacity:1;fill-rule:nonzero;stroke:none;stroke-width:0.1"
       d="m 1203.54,31.55 c 0.98,-0.0531 2.03,-0.209 3.01,-0.209 5.36,0 8.01,2.2891 8.01,7.9039 0,5.0449 -2.39,7.6449 -7.44,7.6449 -0.62,0 -2.7,0 -3.22,-0.3128 -0.41,-0.2598 -0.36,-0.8321 -0.36,-2.1309 z m 0,-7.6969 c 0,-1.6652 0,-5.5121 0.52,-6.916 0.72,-2.0281 3.17,-1.6652 4.99,-1.768 v -1.1972 c -2.7,0.0523 -5.41,0.1562 -8.11,0.209 -2.55,-0.0528 -5.05,-0.1567 -7.65,-0.209 v 1.1972 c 1.67,0 3.85,0 4.42,1.768 0.47,1.4039 0.47,5.2508 0.47,6.916 V 38.466 c 0,1.7149 0,5.5641 -0.47,6.9692 -0.62,1.8179 -2.75,1.7668 -4.42,1.7668 v 1.1949 c 2.65,-0.05 5.25,-0.1559 7.86,-0.2071 2.49,0.0512 4.94,0.1571 7.43,0.2071 5.62,-0.2071 11.96,-2.3918 11.96,-8.9957 0,-7.591 -7.33,-9.4121 -13.52,-9.4121 -0.93,0 -3.27,0.157 -3.48,0.157 v -6.293" /><path
       id="path69"
       style="fill:#231f20;fill-opacity:1;fill-rule:nonzero;stroke:none;stroke-width:0.1"
       d="m 1231.88,32.4852 h 0.1 c 1.77,2.8089 4.68,4.473 8.01,4.473 4.94,0 7.8,-2.3402 7.8,-7.2812 v -9.4122 c 0,-3.4316 -0.47,-4.9929 3.59,-5.2519 v -1.041 c -2.03,0.0523 -4.01,0.1562 -6.03,0.209 -1.88,-0.0528 -3.8,-0.1567 -5.57,-0.209 v 1.041 c 3.9,0.259 3.59,1.5082 3.59,4.9391 v 7.6972 c 0,3.3289 -0.31,7.6449 -4.73,7.6449 -2.24,0 -4.79,-1.5609 -5.83,-3.641 -0.83,-1.664 -0.93,-3.7441 -0.93,-5.6679 v -5.7204 c 0,-3.4316 -0.42,-4.9929 3.64,-5.2519 v -1.041 c -1.93,0.0523 -3.8,0.1562 -5.72,0.209 -1.98,-0.0528 -4.01,-0.1567 -5.98,-0.209 v 1.041 c 3.9,0.259 3.64,1.5082 3.64,4.9391 v 19.9691 c 0,1.3008 0,4.473 -0.52,5.5641 -0.63,1.3007 -2.19,1.198 -3.38,1.3519 v 1.041 l 8.32,1.6641 v -17.057" /><path
       id="path71"
       style="fill:#231f20;fill-opacity:1;fill-rule:nonzero;stroke:none;stroke-width:0.1"
       d="m 1256.26,31.4441 c -0.36,0.8848 -0.88,2.186 -1.5,2.9118 -0.47,0.5222 -1.72,1.0941 -2.34,1.0941 v 1.0391 c 1.76,-0.052 3.53,-0.1559 5.3,-0.2071 1.97,0.0512 3.9,0.1551 5.88,0.2071 V 35.45 c -0.73,-0.2621 -3.18,-0.1559 -3.18,-1.8199 0,-1.3539 1.56,-4.836 2.14,-6.2403 l 3.32,-7.9566 3.9,9.3609 c 0.52,1.2481 1.46,3.4821 1.46,4.836 0,1.4551 -1.77,1.7668 -2.86,1.8199 v 1.0391 c 1.35,-0.052 2.65,-0.1559 4,-0.2071 1.15,0.0512 2.29,0.1551 3.44,0.2071 V 35.45 c -2.19,-0.0531 -2.24,-1.5602 -3.07,-3.3281 l -0.68,-1.5098 -10.81,-24.96093 c -0.68,-1.61133 -2.19,-5.6152325 -4.37,-5.6152325 -0.94,-0.2089845 -1.56,0.5199215 -1.56,1.2480425 0,2.39297 2.91,2.23711 3.95,3.84805 0.83,1.24805 1.72,3.32813 2.34,4.78516 l 1.98,4.41991 -7.34,17.107" /><path
       id="path73"
       style="fill:#231f20;fill-opacity:1;fill-rule:nonzero;stroke:none;stroke-width:0.1"
       d="m 1277.43,13.7648 h -0.52 L 1276.7,21.2 h 1.04 c 0.83,-3.3281 2.6,-6.6031 6.45,-6.6031 2.29,0 4.37,1.1441 4.37,3.6402 0,2.9629 -3.02,4.1598 -5.26,5.3027 -3.01,1.5614 -6.24,3.2774 -6.24,7.1782 0,3.5879 2.86,6.2402 6.45,6.2402 1.61,0 3.59,-0.4691 5.05,-1.3012 l 1.04,1.2481 h 0.62 l -0.11,-6.5 h -1.03 c -0.94,2.6 -2.08,5.3558 -5.36,5.3558 -1.72,0 -3.33,-0.989 -3.33,-2.8597 0,-2.7051 2.86,-3.6403 4.84,-4.7321 3.59,-1.8711 6.86,-3.225 6.86,-7.9043 0,-4.2636 -3.64,-6.8636 -7.64,-6.8636 -1.98,0 -4.16,0.623 -5.72,1.8707 l -1.3,-1.5071" /><path
       id="path75"
       style="fill:#231f20;fill-opacity:1;fill-rule:nonzero;stroke:none;stroke-width:0.1"
       d="m 1297.66,46.2141 c 0,1.5601 1.24,2.8078 2.8,2.8078 1.56,0 2.76,-1.2477 2.76,-2.8078 0,-1.5082 -1.2,-2.7559 -2.65,-2.7559 -1.56,0 -2.91,1.1449 -2.91,2.7559 z m 5.61,-9.2559 V 20.2648 c 0.1,-3.4316 -0.47,-4.9929 3.64,-5.2519 v -1.041 c -1.77,0.0523 -3.69,0.1562 -5.56,0.209 -2.03,-0.0528 -4.06,-0.1567 -6.09,-0.209 v 1.041 c 3.85,0.259 3.54,1.5082 3.59,4.9391 v 7.4378 c 0,0.9883 0,4.9922 -0.21,5.7711 -0.36,1.3012 -2.54,1.195 -3.59,1.145 v 1.039 l 8.22,1.6133" /><path
       id="path77"
       style="fill:#231f20;fill-opacity:1;fill-rule:nonzero;stroke:none;stroke-width:0.1"
       d="m 1330.73,17.4051 c -2.19,-2.7051 -5.78,-4.0039 -9.15,-4.0039 -6.45,0 -11.19,4.5769 -11.19,11.0238 0,7.2809 5.52,12.5332 12.74,12.5332 2.03,0 6.77,-0.625 6.77,-3.4844 0,-0.9359 -0.79,-1.9238 -1.72,-1.9238 -1.25,0 -1.92,1.0391 -2.29,2.027 -0.62,1.5609 -1.04,1.9769 -2.96,1.9769 -5.62,0 -7.33,-5.7207 -7.33,-10.2969 0,-4.9922 1.61,-10.1922 7.48,-10.1922 2.6,0 4.89,1.3524 6.55,3.2762 l 1.1,-0.9359" /><path
       id="path79"
       style="fill:#231f20;fill-opacity:1;fill-rule:nonzero;stroke:none;stroke-width:0.1"
       d="m 1334.63,13.7648 h -0.52 L 1333.9,21.2 h 1.04 c 0.83,-3.3281 2.6,-6.6031 6.45,-6.6031 2.29,0 4.37,1.1441 4.37,3.6402 0,2.9629 -3.02,4.1598 -5.26,5.3027 -3.01,1.5614 -6.24,3.2774 -6.24,7.1782 0,3.5879 2.86,6.2402 6.45,6.2402 1.61,0 3.59,-0.4691 5.05,-1.3012 l 1.03,1.2481 h 0.63 l -0.11,-6.5 h -1.04 c -0.93,2.6 -2.08,5.3558 -5.35,5.3558 -1.72,0 -3.33,-0.989 -3.33,-2.8597 0,-2.7051 2.86,-3.6403 4.84,-4.7321 3.59,-1.8711 6.86,-3.225 6.86,-7.9043 0,-4.2636 -3.64,-6.8636 -7.64,-6.8636 -1.98,0 -4.16,0.623 -5.72,1.8707 l -1.3,-1.5071" /><path
       id="path81"
       style="fill:#fddd04;fill-opacity:1;fill-rule:nonzero;stroke:none;stroke-width:0.1"
       d="m 243.545,196.79 c 6.432,-11.225 12.259,-22.418 17.682,-33.127 8.27,-16.312 21.05,-54.146 23.732,-77.0271 -31.018,0.75 -62.096,6.843 -100.676,17.7281 -5.648,1.59 -11.087,3.25 -16.357,4.953" /><path
       id="path83"
       style="fill:#15569b;fill-opacity:1;fill-rule:nonzero;stroke:none;stroke-width:0.1"
       d="M 72.5996,153.437 C 88.382,74.8039 98.9949,59.4309 98.9949,59.4309 c 0,0 31.6261,17.8589 68.9311,49.8861" /><path
       id="path85"
       style="fill:#ee293d;fill-opacity:1;fill-rule:nonzero;stroke:none;stroke-width:0.1"
       d="M 60.8484,258.814 C 47.7012,249.606 25.6746,233.165 0,207.237 c 0,0 28.8977,-27.595 63.6652,-48.483 2.9746,-1.786 5.95,-3.56 8.9344,-5.317" /><path
       id="path87"
       style="fill:#173a79;fill-opacity:1;fill-rule:nonzero;stroke:none;stroke-width:0.1"
       d="m 60.8484,258.814 c -0.0664,6.373 0.0063,12.724 0.2454,18.996 0.4921,12.928 2.0382,53.446 8.382,79.877 0,0 38.4392,-17.265 83.4322,-54.683" /><path
       id="path89"
       style="fill:#ee2922;fill-opacity:1;fill-rule:nonzero;stroke:none;stroke-width:0.1"
       d="m 243.545,196.79 c 5.248,9.332 10.245,19.565 14.788,30.819 17.671,43.781 24.825,91.516 24.825,91.516 0,0 -69.305,1.047 -119.633,-13.035 -3.649,-1.022 -7.183,-2.05 -10.617,-3.086" /><path
       id="path91"
       style="fill:#ffffff;fill-opacity:1;fill-rule:nonzero;stroke:none;stroke-width:0.1"
       d="m 60.8484,258.814 c 2.6418,1.852 4.9329,3.416 6.8137,4.7 24.9817,17.055 49.5399,28.731 85.2459,39.49 20.7,-17.211 42.786,-38.685 63.155,-64.71 10.382,-13.262 19.408,-27.407 27.482,-41.504 -11.85,-21.073 -25.005,-37.542 -37.232,-50.695 -12.786,-13.754 -25.904,-26.059 -38.387,-36.778 -38.286,12.379 -67.278,27.594 -95.3264,44.12 -0.5586,2.789 -1.1238,5.645 -1.6973,8.599 -5.0312,25.932 -9.6875,61.652 -10.0539,96.778" /></g></svg>
